<svg width="24" height="24" viewBox="0 0 24 24" fill="none" xmlns="http://www.w3.org/2000/svg">
<path fill-rule="evenodd" clip-rule="evenodd" d="M6.2217 1.5C6.06357 1.5 5.91749 1.58456 5.83866 1.72173L0.0588064 11.7796C-0.0196023 11.9161 -0.0196021 12.0839 0.0588066 12.2204L5.83866 22.2783C5.91749 22.4154 6.06357 22.5 6.2217 22.5H17.7783C17.9364 22.5 18.0825 22.4154 18.1613 22.2783L23.9412 12.2204C24.0196 12.0839 24.0196 11.9161 23.9412 11.7796L18.1613 1.72173C18.0825 1.58456 17.9364 1.5 17.7783 1.5H6.2217ZM7.47414 3.74157C7.35028 3.74157 7.23587 3.80808 7.17413 3.91597L2.64705 11.8267C2.58563 11.934 2.58563 12.066 2.64705 12.1733L7.17413 20.084C7.23587 20.1919 7.35028 20.2584 7.47414 20.2584H16.5259C16.6497 20.2584 16.7641 20.1919 16.8259 20.084L21.353 12.1733C21.4144 12.066 21.4144 11.934 21.353 11.8267L16.8259 3.91597C16.7641 3.80808 16.6497 3.74157 16.5259 3.74157H7.47414Z" fill="#C6A052"/>
<path d="M6.39938 8.81428H8.90691L7.96006 10.4394L7.95937 10.439L7.8285 10.6651L7.13072 11.8628C7.12239 11.8771 7.11546 11.8919 7.10993 11.9071L5.7999 14.1714L4.66698 12.2158C4.59208 12.0865 4.59213 11.9272 4.66709 11.7981L6.39938 8.81428Z" fill="#C6A052"/>
<path d="M7.01581 7.75248L8.15827 5.78461C8.23294 5.65598 8.37066 5.57675 8.51977 5.57661L11.9891 5.57343L13.25 7.75281L11.9117 7.75281L11.9117 7.75248H7.01581Z" fill="#C6A052"/>
<path d="M13.2174 5.57231L15.491 5.57022C15.6407 5.57009 15.7791 5.64969 15.854 5.77897L17.5854 8.7675L16.33 10.9372L15.0963 8.81978L13.2174 5.57231Z" fill="#C6A052"/>
<path d="M18.2002 9.82873L19.333 11.7842C19.4079 11.9135 19.4079 12.0728 19.3329 12.2019L17.6012 15.1846L15.0937 15.1846L15.4393 14.5916L15.4432 14.5938L16.193 13.2979L16.8693 12.1372C16.8775 12.1232 16.8843 12.1086 16.8898 12.0936L18.2002 9.82873Z" fill="#C6A052"/>
<path d="M16.9848 16.2464H14.3341C14.3273 16.2469 14.3205 16.2472 14.3136 16.2472H10.7583L12.0193 18.4266L15.4802 18.4234C15.6293 18.4232 15.7671 18.344 15.8417 18.2154L16.9848 16.2464Z" fill="#C6A052"/>
<path d="M10.7913 18.4277L8.50899 18.4298C8.35929 18.4299 8.22086 18.3503 8.14596 18.221L6.41465 15.2325L7.66999 13.0628L9.44505 16.1093C9.45309 16.1231 9.46223 16.1361 9.47234 16.1481L10.7913 18.4277Z" fill="#C6A052"/>
<path d="M10.153 8.97508C10.189 8.91229 10.2555 8.8736 10.3275 8.8736H13.6725C13.7445 8.8736 13.811 8.91229 13.847 8.97508L15.52 11.899C15.5557 11.9615 15.5557 12.0385 15.52 12.101L13.847 15.0249C13.811 15.0877 13.7445 15.1264 13.6725 15.1264H10.3275C10.2555 15.1264 10.189 15.0877 10.153 15.0249L8.48004 12.101C8.44426 12.0385 8.44426 11.9615 8.48004 11.899L10.153 8.97508Z" fill="#C6A052"/>
</svg>
