<?xml version="1.0" encoding="utf-8"?>
<!-- Generator: Adobe Illustrator 26.0.1, SVG Export Plug-In . SVG Version: 6.00 Build 0)  -->
<svg version="1.1" id="Layer_1" xmlns="http://www.w3.org/2000/svg" xmlns:xlink="http://www.w3.org/1999/xlink" x="0px" y="0px"
	 viewBox="0 0 638 628.3" style="enable-background:new 0 0 638 628.3;" xml:space="preserve">
<style type="text/css">
	.st0{fill:#757C8E;}
</style>
<path class="st0" d="M527.2,75.8L319,0L110.8,75.8L0,267.7l38.5,218.2l169.7,142.4h221.6l169.7-142.4L638,267.7L527.2,75.8
	L527.2,75.8z M524.5,290.5l-17.4,42.2v184.2c0.1,2.1-1,4.1-2.8,5.1c-1.7,1.1-3.9,1.1-5.6,0l-54.1-27c-5.2,3-10.7,5.6-16.3,7.9
	s-11.3,4.3-16.9,6.2c-28.2,9-57.5,13.5-87.9,13.5c-37.5,0-70.4-5.9-98.6-17.7c-28.1-11.8-51.6-27.4-70.4-46.8
	c-18.8-19.3-32.9-41.4-42.2-66.2c-9.4-24.8-14.1-50.1-14.1-75.8c0-25.7,4.7-50.9,14.1-75.8c9.4-24.8,23.5-46.8,42.3-66.2
	s42.3-34.9,70.4-46.8c28.2-11.9,61-17.8,98.6-17.8c30.9,0,61.6,4.8,90.9,14.4c29.5,9.4,56.4,25.5,78.6,47c1.1,1.1,1.7,2.6,1.7,4.5
	s-0.6,3.4-1.7,4.5l-83.3,70.4c-1.5,1.5-3,1.9-4.5,1.1c-1.5-0.4-2.8-1.5-3.9-3.4c-7.2-13.2-15.9-25.6-25.9-36.9
	c-9.9-11.4-22-20.6-35.5-27.4c-10.1-5.2-21.1-8.7-32.4-10.1c-11.4-1.5-23.1-0.5-34.1,2.8c-11,3.2-21.1,8.9-29.6,16.6
	c-8.5,7.8-15.5,17-20.6,27.3c-7.5,14.3-12,30-13.2,46.2c-1.3,16.1-1,32.4,0.9,48.4c4.5,36.1,19.9,66.8,46.2,92.4
	c18.8,18,40.7,31.7,65.9,41.1c24.9,9.4,51.2,14.1,77.7,14.1V332.2L385,290.5c-0.7-1.9-0.6-3.6,0.6-5.1c1-1.8,3-2.9,5.1-2.8h128.4
	c2.1-0.1,4.1,1,5.1,2.8C525.1,286.9,525.3,288.6,524.5,290.5L524.5,290.5z"/>
</svg>
