<?xml version="1.0" encoding="UTF-8" standalone="no"?>
<!-- Created with Inkscape (http://www.inkscape.org/) -->

<svg
   width="300"
   height="60"
   viewBox="0 0 79.374998 15.875"
   version="1.1"
   id="svg5"
   sodipodi:docname="immutaswap.svg"
   inkscape:version="1.1 (c68e22c387, 2021-05-23)"
   xmlns:inkscape="http://www.inkscape.org/namespaces/inkscape"
   xmlns:sodipodi="http://sodipodi.sourceforge.net/DTD/sodipodi-0.dtd"
   xmlns:xlink="http://www.w3.org/1999/xlink"
   xmlns="http://www.w3.org/2000/svg"
   xmlns:svg="http://www.w3.org/2000/svg">
  <sodipodi:namedview
     id="namedview7"
     pagecolor="#ffffff"
     bordercolor="#666666"
     borderopacity="1.0"
     inkscape:pageshadow="2"
     inkscape:pageopacity="0.0"
     inkscape:pagecheckerboard="0"
     inkscape:document-units="mm"
     showgrid="false"
     units="px"
     width="300px"
     inkscape:zoom="2.9647587"
     inkscape:cx="158.36027"
     inkscape:cy="81.119587"
     inkscape:window-width="1920"
     inkscape:window-height="1017"
     inkscape:window-x="-8"
     inkscape:window-y="-8"
     inkscape:window-maximized="1"
     inkscape:current-layer="layer1" />
  <defs
     id="defs2">
    <linearGradient
       inkscape:collect="always"
       id="linearGradient24980">
      <stop
         style="stop-color:#ffff00;stop-opacity:1;"
         offset="0"
         id="stop24976" />
      <stop
         style="stop-color:#808000;stop-opacity:1"
         offset="1"
         id="stop24978" />
    </linearGradient>
    <linearGradient
       inkscape:collect="always"
       xlink:href="#linearGradient24980"
       id="linearGradient25048"
       gradientUnits="userSpaceOnUse"
       x1="0.63556248"
       y1="8.9471807"
       x2="89.069542"
       y2="9.4734859" />
  </defs>
  <g
     inkscape:label="Layer 1"
     inkscape:groupmode="layer"
     id="layer1">
    <g
       id="g8103"
       transform="matrix(0.97751362,0,0,0.97751362,0.89243015,0.17848586)">
      <g
         aria-label="immutaswap.io"
         transform="scale(0.98290815,1.0173891)"
         id="text3224"
         style="font-size:11.2262px;line-height:1.25;stroke-width:0.280655">
        <path
           d="M 4.0971514,4.8368343 V 13.580982 H 0.8169996 V 4.8368343 Z M 2.465846,0.93397985 q 0.6665549,0 1.1489301,0.47360485 0.4911458,0.4648343 0.4911458,1.1050778 0,0.6840959 -0.4648344,1.1226188 -0.4560639,0.438523 -1.1752415,0.438523 -0.7191777,0 -1.1840121,-0.438523 -0.45606384,-0.4385229 -0.45606384,-1.1226188 0,-0.6402435 0.48237524,-1.1050778 Q 1.799291,0.93397985 2.465846,0.93397985 Z"
           style="font-size:17.9619px"
           id="path8030" />
        <path
           d="m 13.166911,13.580982 h -2.050097 v -2.94907 q 0,-0.339856 -0.07126,-0.471413 -0.07126,-0.131557 -0.257632,-0.131557 -0.345337,0 -0.345337,0.608452 v 2.943588 H 8.3924875 v -2.94907 q 0,-0.339856 -0.076742,-0.471413 -0.07126,-0.131557 -0.2576325,-0.131557 -0.3398557,0 -0.3398557,0.608452 v 2.943588 H 5.6681606 v -3.365667 q 0,-0.9208994 0.6194144,-1.56224 0.6194143,-0.646822 1.5019428,-0.646822 0.9099361,0 1.6334998,0.767416 0.8057864,-0.767416 1.6115734,-0.767416 1.025049,0 1.644463,0.7454898 0.487857,0.5810436 0.487857,1.6937972 z"
           style="font-family:'Bauhaus 93';-inkscape-font-specification:'Bauhaus 93, '"
           id="path8032" />
        <path
           d="m 21.866121,13.580982 h -2.050097 v -2.94907 q 0,-0.339856 -0.07126,-0.471413 -0.07126,-0.131557 -0.257633,-0.131557 -0.345337,0 -0.345337,0.608452 v 2.943588 h -2.050097 v -2.94907 q 0,-0.339856 -0.07674,-0.471413 -0.07126,-0.131557 -0.257632,-0.131557 -0.339856,0 -0.339856,0.608452 v 2.943588 H 14.36737 v -3.365667 q 0,-0.9208994 0.619414,-1.56224 0.619415,-0.646822 1.501943,-0.646822 0.909936,0 1.6335,0.767416 0.805787,-0.767416 1.611573,-0.767416 1.025049,0 1.644463,0.7454898 0.487858,0.5810436 0.487858,1.6937972 z"
           style="font-family:'Bauhaus 93';-inkscape-font-specification:'Bauhaus 93, '"
           id="path8034" />
        <path
           d="m 23.066578,8.1926254 h 2.050097 v 3.0861086 q 0,0.465931 0.38919,0.465931 0.383708,0 0.383708,-0.465931 V 8.1926254 h 2.050097 v 3.0477376 q 0,1.06342 -0.707119,1.797946 -0.707119,0.729046 -1.732168,0.729046 -1.167568,0 -1.880169,-0.849639 -0.553636,-0.663267 -0.553636,-1.841799 z"
           style="font-family:'Bauhaus 93';-inkscape-font-specification:'Bauhaus 93, '"
           id="path8036" />
        <path
           d="m 30.960001,6.098676 v 2.0939494 h 0.9209 v 2.1652096 h -0.9209 q 0,0.652304 0.202817,0.898973 0.208299,0.246669 0.756453,0.246669 v 2.154247 q -0.158964,0.0055 -0.235706,0.0055 -0.696156,0 -1.31557,-0.323411 -0.613933,-0.323411 -0.986678,-0.877047 -0.471413,-0.707119 -0.471413,-1.874687 V 6.098676 Z"
           style="font-family:'Bauhaus 93';-inkscape-font-specification:'Bauhaus 93, '"
           id="path8038" />
        <path
           d="m 35.926278,11.530885 v 2.121357 q -0.25215,0.04385 -0.460449,0.04385 -1.233347,0 -2.055579,-0.811269 -0.822231,-0.811268 -0.822231,-2.033652 0,-1.1894951 0.827713,-2.017208 0.833194,-0.827713 2.022689,-0.827713 1.326534,0 2.088468,0.7783791 0.767416,0.7728975 0.767416,2.1158759 v 2.680474 h -2.050097 v -2.532473 q 0,-0.433042 -0.21378,-0.690674 -0.208299,-0.257633 -0.564599,-0.257633 -0.323411,0 -0.559118,0.235707 -0.235706,0.235706 -0.235706,0.559117 0,0.339856 0.21378,0.559118 0.213781,0.219261 0.542673,0.219261 0.268596,0 0.49882,-0.14252 z"
           style="font-family:'Bauhaus 93';-inkscape-font-specification:'Bauhaus 93, '"
           id="path8040" />
        <path
           d="m 45.32931,4.9596207 v 3.455561 q -0.692866,0 -0.95598,0.2631137 -0.254344,0.2543434 -0.324507,1.0173733 -0.228032,2.5346623 -1.964583,3.5783473 -0.920898,0.543769 -2.613597,0.543769 h -0.456064 v -3.473102 h 0.149098 q 0.789341,0 1.122619,-0.324507 0.342048,-0.3332777 0.39467,-1.1577009 0.07016,-1.3418803 0.245573,-1.8856488 0.18418,-0.5437684 0.736719,-1.0787665 0.96475,-0.9384391 2.67499,-0.9384391 z"
           style="font-size:17.9619px"
           id="path8042" />
        <path
           d="m 46.040814,8.1926254 h 2.050097 v 2.9435886 q 0,0.345337 0.07126,0.482376 0.07126,0.131557 0.257632,0.131557 0.345338,0 0.345338,-0.613933 V 8.1926254 h 2.050097 v 2.9435886 q 0,0.345337 0.07126,0.482376 0.07674,0.131557 0.263114,0.131557 0.339855,0 0.339855,-0.613933 V 8.1926254 h 2.050097 v 3.3656676 q 0,0.920899 -0.619414,1.567721 -0.619414,0.641341 -1.501943,0.641341 -0.909936,0 -1.633499,-0.767416 -0.800306,0.767416 -1.611574,0.767416 -1.025049,0 -1.644463,-0.74549 -0.487857,-0.586525 -0.487857,-1.693797 z"
           style="font-family:'Bauhaus 93';-inkscape-font-specification:'Bauhaus 93, '"
           id="path8044" />
        <path
           d="m 57.7768,11.530885 v 2.121357 q -0.252151,0.04385 -0.46045,0.04385 -1.233347,0 -2.055579,-0.811269 -0.822231,-0.811268 -0.822231,-2.033652 0,-1.1894951 0.827713,-2.017208 0.833194,-0.827713 2.022689,-0.827713 1.326534,0 2.088468,0.7783791 0.767416,0.7728975 0.767416,2.1158759 v 2.680474 h -2.050097 v -2.532473 q 0,-0.433042 -0.21378,-0.690674 -0.208299,-0.257633 -0.564599,-0.257633 -0.323411,0 -0.559117,0.235707 -0.235707,0.235706 -0.235707,0.559117 0,0.339856 0.21378,0.559118 0.213781,0.219261 0.542673,0.219261 0.268596,0 0.498821,-0.14252 z"
           style="font-family:'Bauhaus 93';-inkscape-font-specification:'Bauhaus 93, '"
           id="path8046" />
        <path
           d="m 63.269305,15.603672 h -2.050097 v -4.560644 q 0,-1.2552736 0.657785,-2.0446158 0.378227,-0.454968 0.95927,-0.7235636 0.586525,-0.2685956 1.200458,-0.2685956 1.222384,0 2.06106,0.8222314 0.838676,0.8222315 0.838676,2.0172076 0,1.162087 -0.833194,2.006245 -0.833195,0.844158 -1.973356,0.844158 -0.186372,0 -0.548154,-0.03837 v -2.258396 q 0.252151,0.202817 0.504302,0.202817 0.31793,0 0.542673,-0.235706 0.230225,-0.235707 0.230225,-0.559118 0,-0.323411 -0.235707,-0.548154 -0.235706,-0.230225 -0.564599,-0.230225 -0.789342,0 -0.789342,1.090827 z"
           style="font-family:'Bauhaus 93';-inkscape-font-specification:'Bauhaus 93, '"
           id="path8048" />
        <path
           d="m 69.353818,11.125251 q 0.537191,0 0.920899,0.389189 0.38919,0.38919 0.38919,0.926381 0,0.537191 -0.383708,0.915418 -0.383708,0.372745 -0.926381,0.372745 -0.564599,0 -0.931863,-0.361782 -0.361781,-0.367263 -0.361781,-0.931862 0,-0.548155 0.378226,-0.926381 0.378227,-0.383708 0.915418,-0.383708 z"
           style="font-family:'Bauhaus 93';-inkscape-font-specification:'Bauhaus 93, '"
           id="path8050" />
        <path
           d="M 74.133727,8.1158838 V 13.580982 H 72.08363 V 8.1158838 Z M 73.11416,5.6765972 q 0.416597,0 0.718082,0.2960033 0.306966,0.2905218 0.306966,0.6906744 0,0.4275604 -0.290521,0.7016375 -0.285041,0.2740772 -0.734527,0.2740772 -0.449487,0 -0.740008,-0.2740772 -0.285041,-0.2740771 -0.285041,-0.7016375 0,-0.4001526 0.301485,-0.6906744 0.306967,-0.2960033 0.723564,-0.2960033 z"
           style="font-family:'Bauhaus 93';-inkscape-font-specification:'Bauhaus 93, '"
           id="path8052" />
        <path
           d="m 77.932434,8.0007714 q 1.162088,0 1.989801,0.8386761 0.833194,0.8331945 0.833194,2.0007635 0,1.184013 -0.844157,2.017208 -0.838677,0.833194 -2.028171,0.833194 -1.189495,0 -2.033653,-0.833194 -0.844157,-0.838677 -0.844157,-2.017208 0,-1.2004582 0.844157,-2.0172081 0.844158,-0.8222315 2.082986,-0.8222315 z m -0.05482,2.0226896 q -0.328893,0 -0.559117,0.241188 -0.230225,0.235706 -0.230225,0.581043 0,0.339856 0.230225,0.581044 0.235706,0.241188 0.559117,0.241188 0.328893,0 0.559117,-0.241188 0.235707,-0.241188 0.235707,-0.581044 0,-0.345337 -0.230225,-0.581043 -0.230225,-0.241188 -0.564599,-0.241188 z"
           style="font-family:'Bauhaus 93';-inkscape-font-specification:'Bauhaus 93, '"
           id="path8054" />
      </g>
      <g
         aria-label="immutaswap.io"
         transform="scale(0.98290815,1.0173891)"
         id="text3224-4"
         style="font-size:11.2262px;line-height:1.25;fill:#ffcc00;stroke-width:0.280655">
        <path
           d="M 3.2801504,3.9028667 V 12.647015 H -1.3662502e-6 V 3.9028667 Z M 1.648845,1.2261793e-5 q 0.6665549,0 1.1489302,0.473604808207 0.4911457,0.46483434 0.4911457,1.10507783 0,0.6840959 -0.4648344,1.1226188 -0.4560638,0.438523 -1.1752415,0.438523 -0.71917768,0 -1.18401202,-0.438523 -0.45606389,-0.4385229 -0.45606389,-1.1226188 0,-0.64024349 0.48237527,-1.10507783 Q 0.98229008,1.2261793e-5 1.648845,1.2261793e-5 Z"
           style="font-size:17.9619px"
           id="path7985" />
        <path
           d="M 12.349911,12.647015 H 10.299813 V 9.6979445 q 0,-0.3398557 -0.07126,-0.4714127 -0.07126,-0.1315571 -0.2576322,-0.1315571 -0.3453372,0 -0.3453372,0.6084513 v 2.943589 H 7.5754865 V 9.6979445 q 0,-0.3398557 -0.076742,-0.4714127 -0.07126,-0.1315571 -0.2576325,-0.1315571 -0.3398557,0 -0.3398557,0.6084513 v 2.943589 H 4.8511597 V 9.2813472 q 0,-0.9208992 0.6194143,-1.5622398 0.6194144,-0.646822 1.5019428,-0.646822 0.9099361,0 1.6334998,0.767416 0.8057868,-0.767416 1.6115734,-0.767416 1.025049,0 1.644463,0.7454898 0.487858,0.5810436 0.487858,1.6937968 z"
           style="font-family:'Bauhaus 93';-inkscape-font-specification:'Bauhaus 93, '"
           id="path7987" />
        <path
           d="M 21.04912,12.647015 H 18.999023 V 9.6979445 q 0,-0.3398557 -0.07126,-0.4714127 -0.07126,-0.1315571 -0.257633,-0.1315571 -0.345337,0 -0.345337,0.6084513 v 2.943589 H 16.274696 V 9.6979445 q 0,-0.3398557 -0.07674,-0.4714127 -0.07126,-0.1315571 -0.257632,-0.1315571 -0.339856,0 -0.339856,0.6084513 v 2.943589 H 13.550369 V 9.2813472 q 0,-0.9208992 0.619414,-1.5622398 0.619415,-0.646822 1.501943,-0.646822 0.909936,0 1.6335,0.767416 0.805787,-0.767416 1.611573,-0.767416 1.025049,0 1.644463,0.7454898 0.487858,0.5810436 0.487858,1.6937968 z"
           style="font-family:'Bauhaus 93';-inkscape-font-specification:'Bauhaus 93, '"
           id="path7989" />
        <path
           d="m 22.249577,7.2586578 h 2.050097 v 3.0861092 q 0,0.465931 0.38919,0.465931 0.383708,0 0.383708,-0.465931 V 7.2586578 h 2.050097 v 3.0477382 q 0,1.063419 -0.707119,1.797946 -0.707119,0.729045 -1.732168,0.729045 -1.167568,0 -1.880169,-0.849639 -0.553636,-0.663267 -0.553636,-1.841799 z"
           style="font-family:'Bauhaus 93';-inkscape-font-specification:'Bauhaus 93, '"
           id="path7991" />
        <path
           d="m 30.143,5.1647084 v 2.0939494 h 0.9209 V 9.4238673 H 30.143 q 0,0.6523037 0.202818,0.8989727 0.208298,0.24667 0.756452,0.24667 v 2.154246 q -0.158964,0.0055 -0.235706,0.0055 -0.696156,0 -1.31557,-0.323411 Q 28.937061,12.082416 28.564316,11.52878 28.092903,10.821661 28.092903,9.6540921 V 5.1647084 Z"
           style="font-family:'Bauhaus 93';-inkscape-font-specification:'Bauhaus 93, '"
           id="path7993" />
        <path
           d="m 35.109278,10.596918 v 2.121357 q -0.252151,0.04385 -0.46045,0.04385 -1.233347,0 -2.055579,-0.811268 -0.822231,-0.811269 -0.822231,-2.0336528 0,-1.1894948 0.827713,-2.0172078 0.833194,-0.827713 2.022689,-0.827713 1.326534,0 2.088468,0.7783791 0.767416,0.7728975 0.767416,2.1158756 V 12.647013 H 35.427207 V 10.11454 q 0,-0.4330422 -0.21378,-0.6906747 -0.208299,-0.2576325 -0.564599,-0.2576325 -0.323411,0 -0.559117,0.2357064 -0.235707,0.2357063 -0.235707,0.5591173 0,0.3398555 0.21378,0.5591175 0.213781,0.219262 0.542673,0.219262 0.268596,0 0.498821,-0.14252 z"
           style="font-family:'Bauhaus 93';-inkscape-font-specification:'Bauhaus 93, '"
           id="path7995" />
        <path
           d="m 44.512309,4.0256531 v 3.455561 q -0.692866,0 -0.95598,0.2631138 -0.254344,0.2543433 -0.324507,1.0173732 -0.228032,2.5346629 -1.964583,3.5783479 -0.920898,0.543768 -2.613597,0.543768 H 38.197578 V 9.4107151 h 0.149098 q 0.789341,0 1.122619,-0.324507 0.342048,-0.3332774 0.39467,-1.1577006 0.07016,-1.3418803 0.245573,-1.8856488 0.18418,-0.5437684 0.736719,-1.0787665 0.96475,-0.9384391 2.67499,-0.9384391 z"
           style="font-size:17.9619px"
           id="path7997" />
        <path
           d="m 45.223813,7.2586578 h 2.050097 v 2.9435882 q 0,0.345338 0.07126,0.482376 0.07126,0.131557 0.257632,0.131557 0.345338,0 0.345338,-0.613933 V 7.2586578 h 2.050097 v 2.9435882 q 0,0.345338 0.07126,0.482376 0.07674,0.131557 0.263114,0.131557 0.339855,0 0.339855,-0.613933 V 7.2586578 h 2.050098 v 3.3656672 q 0,0.920899 -0.619415,1.567722 -0.619414,0.64134 -1.501943,0.64134 -0.909936,0 -1.633499,-0.767416 -0.800306,0.767416 -1.611574,0.767416 -1.025049,0 -1.644463,-0.74549 -0.487857,-0.586525 -0.487857,-1.693797 z"
           style="font-family:'Bauhaus 93';-inkscape-font-specification:'Bauhaus 93, '"
           id="path7999" />
        <path
           d="m 56.959799,10.596918 v 2.121357 q -0.252151,0.04385 -0.46045,0.04385 -1.233347,0 -2.055579,-0.811268 -0.822231,-0.811269 -0.822231,-2.0336528 0,-1.1894948 0.827713,-2.0172078 0.833194,-0.827713 2.022689,-0.827713 1.326534,0 2.088468,0.7783791 0.767416,0.7728975 0.767416,2.1158756 V 12.647013 H 57.277728 V 10.11454 q 0,-0.4330422 -0.21378,-0.6906747 -0.208299,-0.2576325 -0.564599,-0.2576325 -0.323411,0 -0.559117,0.2357064 -0.235707,0.2357063 -0.235707,0.5591173 0,0.3398555 0.21378,0.5591175 0.213781,0.219262 0.542673,0.219262 0.268596,0 0.498821,-0.14252 z"
           style="font-family:'Bauhaus 93';-inkscape-font-specification:'Bauhaus 93, '"
           id="path8001" />
        <path
           d="M 62.452304,14.669704 H 60.402207 V 10.10906 q 0,-1.2552732 0.657785,-2.0446153 0.378227,-0.4549681 0.95927,-0.7235637 0.586525,-0.2685956 1.200458,-0.2685956 1.222384,0 2.06106,0.8222314 0.838676,0.8222315 0.838676,2.0172079 0,1.1620873 -0.833194,2.0062443 -0.833195,0.844158 -1.973356,0.844158 -0.186372,0 -0.548154,-0.03837 V 10.46536 q 0.252151,0.202818 0.504302,0.202818 0.31793,0 0.542673,-0.235707 0.230225,-0.235706 0.230225,-0.5591171 0,-0.3234111 -0.235707,-0.5481544 -0.235706,-0.2302248 -0.564599,-0.2302248 -0.789342,0 -0.789342,1.0908273 z"
           style="font-family:'Bauhaus 93';-inkscape-font-specification:'Bauhaus 93, '"
           id="path8003" />
        <path
           d="m 68.536817,10.191283 q 0.537191,0 0.920899,0.38919 0.38919,0.389189 0.38919,0.926381 0,0.537191 -0.383708,0.915417 -0.383708,0.372745 -0.926381,0.372745 -0.564599,0 -0.931863,-0.361782 -0.361781,-0.367263 -0.361781,-0.931862 0,-0.548154 0.378226,-0.926381 0.378227,-0.383708 0.915418,-0.383708 z"
           style="font-family:'Bauhaus 93';-inkscape-font-specification:'Bauhaus 93, '"
           id="path8005" />
        <path
           d="M 73.316726,7.1819162 V 12.647015 H 71.266629 V 7.1819162 Z M 72.297159,4.7426296 q 0.416597,0 0.718082,0.2960033 0.306966,0.2905218 0.306966,0.6906744 0,0.4275604 -0.290521,0.7016375 -0.285041,0.2740772 -0.734527,0.2740772 -0.449487,0 -0.740008,-0.2740772 -0.285041,-0.2740771 -0.285041,-0.7016375 0,-0.4001526 0.301485,-0.6906744 0.306967,-0.2960033 0.723564,-0.2960033 z"
           style="font-family:'Bauhaus 93';-inkscape-font-specification:'Bauhaus 93, '"
           id="path8007" />
        <path
           d="m 77.115434,7.0668038 q 1.162087,0 1.9898,0.8386761 0.833194,0.8331945 0.833194,2.0007632 0,1.1840129 -0.844157,2.0172079 -0.838677,0.833194 -2.028171,0.833194 -1.189495,0 -2.033653,-0.833194 -0.844157,-0.838676 -0.844157,-2.0172079 0,-1.2004579 0.844157,-2.0172078 0.844158,-0.8222315 2.082987,-0.8222315 z m -0.05482,2.0226894 q -0.328892,0 -0.559117,0.2411879 -0.230225,0.2357063 -0.230225,0.5810436 0,0.3398553 0.230225,0.5810433 0.235706,0.241188 0.559117,0.241188 0.328893,0 0.559117,-0.241188 0.235707,-0.241188 0.235707,-0.5810433 0,-0.3453373 -0.230225,-0.5810436 -0.230225,-0.2411879 -0.564599,-0.2411879 z"
           style="font-family:'Bauhaus 93';-inkscape-font-specification:'Bauhaus 93, '"
           id="path8009" />
      </g>
    </g>
  </g>
</svg>
