<?xml version="1.0" encoding="UTF-8" standalone="no"?>
<!-- Created with Inkscape (http://www.inkscape.org/) -->

<svg
   width="300"
   height="300"
   viewBox="0 0 79.375003 79.375002"
   version="1.1"
   id="svg5"
   inkscape:version="1.1 (c68e22c387, 2021-05-23)"
   sodipodi:docname="logo.svg"
   xmlns:inkscape="http://www.inkscape.org/namespaces/inkscape"
   xmlns:sodipodi="http://sodipodi.sourceforge.net/DTD/sodipodi-0.dtd"
   xmlns:xlink="http://www.w3.org/1999/xlink"
   xmlns="http://www.w3.org/2000/svg"
   xmlns:svg="http://www.w3.org/2000/svg">
  <sodipodi:namedview
     id="namedview7"
     pagecolor="#ffffff"
     bordercolor="#666666"
     borderopacity="1.0"
     inkscape:pageshadow="2"
     inkscape:pageopacity="0.0"
     inkscape:pagecheckerboard="0"
     inkscape:document-units="mm"
     showgrid="false"
     inkscape:zoom="1.4823793"
     inkscape:cx="80.950942"
     inkscape:cy="156.84245"
     inkscape:window-width="1920"
     inkscape:window-height="1017"
     inkscape:window-x="-8"
     inkscape:window-y="-8"
     inkscape:window-maximized="1"
     inkscape:current-layer="layer1"
     width="300px"
     units="px" />
  <defs
     id="defs2">
    <linearGradient
       inkscape:collect="always"
       id="linearGradient32949">
      <stop
         style="stop-color:#000000;stop-opacity:1;"
         offset="0"
         id="stop32945" />
      <stop
         style="stop-color:#000000;stop-opacity:0;"
         offset="1"
         id="stop32947" />
    </linearGradient>
    <linearGradient
       inkscape:collect="always"
       xlink:href="#linearGradient32949"
       id="linearGradient1012"
       gradientUnits="userSpaceOnUse"
       x1="28.353306"
       y1="93.066879"
       x2="139.86378"
       y2="93.066879"
       gradientTransform="matrix(0.14151029,0,0,0.14151029,-6.5690654,-22.748988)" />
    <linearGradient
       inkscape:collect="always"
       xlink:href="#linearGradient32949"
       id="linearGradient1014"
       gradientUnits="userSpaceOnUse"
       x1="28.353306"
       y1="93.066879"
       x2="139.86378"
       y2="93.066879"
       gradientTransform="matrix(0.14151029,0,0,0.14151029,-6.5690654,-22.748988)" />
    <linearGradient
       inkscape:collect="always"
       xlink:href="#linearGradient32949"
       id="linearGradient1016"
       gradientUnits="userSpaceOnUse"
       x1="28.353306"
       y1="93.066879"
       x2="139.86378"
       y2="93.066879"
       gradientTransform="matrix(0.14151029,0,0,0.14151029,-6.5690654,-22.748988)" />
  </defs>
  <g
     inkscape:label="Layer 1"
     inkscape:groupmode="layer"
     id="layer1">
    <text
       xml:space="preserve"
       style="font-style:normal;font-weight:normal;font-size:10.5833px;line-height:1.25;font-family:sans-serif;fill:#000000;fill-opacity:1;stroke:none;stroke-width:0.264583"
       x="186.33894"
       y="97.810097"
       id="text15075"><tspan
         sodipodi:role="line"
         id="tspan15073"
         style="stroke-width:0.264583"
         x="186.33894"
         y="97.810097" /></text>
    <g
       id="g1246"
       transform="matrix(1.3260916,0,0,1.3283169,-11.268008,3.7871382)">
      <path
         style="opacity:1;fill:#aa8800;fill-opacity:1;stroke:url(#linearGradient1012);stroke-width:0.190923"
         d="M 30.760437,52.643795 C 24.951643,51.797878 19.777061,49.103788 15.63077,44.766695 12.201472,41.179584 10.072516,37.112458 8.9667901,32.035929 8.4717039,29.762923 8.4717039,24.401006 8.9667901,22.128 9.5110427,19.629265 10.148753,17.817698 11.290886,15.525865 14.772866,8.53883 21.291715,3.5433282 29.229032,1.7795723 c 1.46128,-0.324713 7.905264,-0.5969815 7.255081,-0.3065389 -0.210016,0.093816 -1.241,0.4483504 -2.291078,0.7878544 C 25.267117,5.1467625 18.62432,12.837943 16.795322,22.404347 c -0.451187,2.359892 -0.443032,6.829645 0.01689,9.259776 1.566326,8.276023 6.65367,15.004567 14.21442,18.800046 1.51549,0.760776 5.111718,2.00868 5.802539,2.013504 0.340287,0.0021 0.365035,0.03755 0.132246,0.187997 -0.347064,0.224292 -4.613958,0.209241 -6.200985,-0.02188 z"
         id="path26398" />
      <path
         style="opacity:1;fill:#ffcc00;fill-opacity:1;stroke:url(#linearGradient1014);stroke-width:0.190923"
         d="m 40.588961,52.678297 c -0.43459,-0.09969 -0.523092,-0.162067 -0.253123,-0.178417 0.843328,-0.05108 4.302839,-1.357622 6.143694,-2.3203 7.029001,-3.675836 11.993576,-10.439273 13.520865,-18.419998 0.464185,-2.425548 0.460372,-6.851281 -0.0081,-9.355235 C 58.49295,14.389707 53.48832,7.6148764 46.33539,3.9168209 44.30148,2.8652897 41.613299,1.8694946 40.016159,1.5759568 39.179868,1.4222559 39.200188,1.4143877 40.779852,1.2802996 c 1.878283,-0.1594373 4.978272,0.059674 7.12798,0.5038005 4.732844,0.9778129 9.249794,3.461035 12.828711,7.0526763 3.920559,3.9344946 6.411581,8.8267076 7.277191,14.2919676 0.367794,2.322174 0.264522,6.913247 -0.202738,9.012688 -1.14938,5.164254 -3.48165,9.423463 -7.161424,13.078236 -3.75027,3.724795 -8.020267,6.015252 -13.151434,7.054525 -2.058124,0.41685 -5.879331,0.640345 -6.909209,0.404104 z"
         id="path26437" />
      <path
         style="opacity:1;fill:#f4e3d7;fill-opacity:1;stroke:url(#linearGradient1016);stroke-width:0.190923"
         d="M 36.25431,52.001797 C 26.069127,49.369262 18.577781,41.042482 17.012403,30.614044 15.388709,19.797102 21.214984,8.7409783 31.079237,3.9203792 c 1.983869,-0.9695057 4.15535,-1.7407279 5.937578,-2.1087909 1.028457,-0.2123964 1.38806,-0.2012197 2.712993,0.084317 4.681561,1.0089268 8.728356,3.1679113 12.251901,6.5364443 3.975208,3.8003224 6.435107,8.2166434 7.628495,13.6956484 0.495087,2.273006 0.495087,7.634924 0,9.907929 -1.100293,5.051584 -3.251262,9.161 -6.663143,12.729889 -3.517651,3.679526 -7.430058,6.013576 -12.140347,7.242654 -2.167415,0.565559 -2.339445,0.565302 -4.552404,-0.0067 z"
         id="path26587"
         sodipodi:nodetypes="ssssssssssss" />
      <path
         style="opacity:0.830128;fill:#000000;fill-opacity:1;stroke:none;stroke-width:0.190923"
         d="m 22.253606,33.859736 v -6.014078 h 2.482001 2.482002 v 6.014078 6.014079 h -2.482002 -2.482001 z"
         id="path32594" />
      <path
         style="opacity:0.830128;fill:#000000;fill-opacity:1;stroke:none;stroke-width:0.190923"
         d="m 23.899033,26.791682 c -0.889352,-0.305746 -1.192348,-0.563988 -1.408496,-1.200456 -0.640339,-1.885538 1.665196,-3.413353 3.623604,-2.401261 1.056052,0.545761 1.336643,2.222155 0.509002,3.041046 -0.623859,0.617263 -1.834626,0.866461 -2.72411,0.560671 z"
         id="path32670" />
      <path
         style="opacity:0.830128;fill:#000000;fill-opacity:1;stroke:none;stroke-width:0.190923"
         d="m 28.744994,37.76166 v -2.469997 h 0.642484 c 1.147586,0 1.572519,-0.541592 1.831996,-2.334944 0.493165,-3.408449 1.448053,-4.327396 4.908617,-4.723871 0.927167,-0.106223 1.750191,-0.193839 1.828945,-0.194701 0.07875,-8.56e-4 0.143194,1.115335 0.143194,2.480435 v 2.481999 h -0.568368 c -0.710118,0 -1.016045,0.446257 -1.439762,2.100159 -0.438968,1.713431 -0.708357,2.30088 -1.434258,3.127634 -1.026624,1.16926 -1.836798,1.466874 -5.196886,1.909065 l -0.715962,0.09422 z"
         id="path32709" />
      <path
         style="opacity:0.830128;fill:#000000;fill-opacity:1;stroke:none;stroke-width:0.190923"
         d="M 46.306316,40.064428 C 44.181235,39.86039 42.479968,38.866247 41.725674,37.387708 41.523713,36.991835 41.177661,35.993135 40.956667,35.168376 40.49687,33.452384 40.173915,33.000581 39.407101,33.000581 h -0.543178 v -2.488576 -2.488577 l 1.002347,0.117205 c 2.881637,0.336948 3.624896,0.566552 4.59702,1.420087 0.770161,0.676211 0.964872,1.166551 1.354662,3.411456 0.33566,1.933155 0.629231,2.319487 1.762568,2.319487 h 0.829561 v 2.481998 c 0,2.246706 -0.03166,2.479475 -0.334115,2.4553 -0.183761,-0.01471 -0.980109,-0.08873 -1.76965,-0.164533 z"
         id="path32748" />
      <path
         style="opacity:0.830128;fill:#000000;fill-opacity:1;stroke:none;stroke-width:0.190923"
         d="m 49.746545,33.9552 v -5.91862 h 2.481999 2.482003 v 5.91862 5.918615 h -2.482003 -2.481999 z"
         id="path32787" />
      <path
         style="opacity:0.830128;fill:#000000;fill-opacity:1;stroke:none;stroke-width:0.190923"
         d="m 50.495548,26.332958 c -1.357579,-1.357582 -0.22419,-3.452646 1.866711,-3.45059 2.032913,0.002 3.032191,2.283996 1.547288,3.533458 -0.464425,0.390789 -0.768279,0.475217 -1.710334,0.475217 -1.011601,0 -1.21085,-0.06527 -1.703665,-0.558085 z"
         id="path32826" />
    </g>
  </g>
</svg>
